<?xml version="1.0" encoding="utf-8"?>
<!-- Generator: Adobe Illustrator 16.0.0, SVG Export Plug-In . SVG Version: 6.00 Build 0)  -->
<!DOCTYPE svg PUBLIC "-//W3C//DTD SVG 1.1//EN" "http://www.w3.org/Graphics/SVG/1.1/DTD/svg11.dtd">
<svg version="1.1" id="Layer_1" xmlns="http://www.w3.org/2000/svg" xmlns:xlink="http://www.w3.org/1999/xlink" x="0px" y="0px"
	 width="205.883px" height="147.968px" viewBox="0 0 205.883 147.968" enable-background="new 0 0 205.883 147.968"
	 xml:space="preserve">
<g display="none" opacity="0.45">
	<path display="inline" fill="#7FB0E5" d="M190.721,0.001v1.574h-2.881v7.943h-1.787V1.575h-2.85V0.001H190.721z M200.453,9.519
		l-0.332-5.598c-0.031-0.736-0.031-1.61-0.066-2.66h-0.098c-0.232,0.839-0.497,1.959-0.762,2.833l-1.625,5.285h-1.854l-1.59-5.424
		c-0.164-0.7-0.464-1.856-0.662-2.695h-0.101c0,0.875-0.033,1.82-0.065,2.66l-0.332,5.598h-1.72L191.91,0h2.715l1.521,4.654
		c0.232,0.734,0.398,1.435,0.598,2.414h0.064c0.199-0.839,0.432-1.68,0.598-2.344L198.963,0h2.613l0.664,9.518L200.453,9.519
		L200.453,9.519z"/>
</g>
<g>
	<path fill="#FFFFFF" d="M198.561,107.818c-6.651-0.279-7.768-10.846-17.309-14.286V73.146
		c-79.223,97.38-93.029-4.667-103.289,3.104c0.26,0.407,0.409,0.89,0.409,1.41c0,1.457-1.18,2.633-2.638,2.633
		c-3.997,0-3.596-6.055,2.609-7.166c18.596-3.38,24.823,81.076,100.749-14.046c0.054,0.061-7.7-14.022-12.512-21.239
		c-16.948-28.309-37.271,1.923-25.816,8.698c0.314,0.19,0.61,0.307,0.896,0.355c0.416-0.911,1.328-1.545,2.4-1.545
		c5.174,0,2.314,9.926-5.336,4.642c-22.6-14.669,6.098-54.043,31.391-24.423c3.66,4.283,8.116,10.672,11.137,15.162V21.078h-5.696
		c-2.004-2.718-4.651-4.873-7.767-6.268h34.803v6.268h-10.213V52.41c0.943,1.929,2.342,3.616,4.404,4.938
		c0.559,0.363,0.564,0.737,0.048,1.01c-1.392,0.743-2.86,2.085-4.452,4.373v30.848c0.074,3.328,2.381,12.425,7.271,10.019
		c0-0.055,0.006-0.106,0.013-0.158c-0.026-0.148-0.037-0.299-0.037-0.45c0-1.456,1.181-2.636,2.636-2.636
		C206.322,100.351,206.305,108.366,198.561,107.818L198.561,107.818z"/>
	<path fill="#FFFFFF" d="M119.691,95.542c-21.907-2.923-17.376-32.252-40.16-30.236l-0.458-5.498
		c30.149-4.854,31.973-36.417,12.187-35.188c-15.952,0.993-19.688,19.111-9.726,20.297c0.375-0.93,1.261-1.604,2.326-1.651
		c3.584-0.165,4.128,5.882-0.309,6.083c-18.744,0.857-21.027-33.193,7.563-34.51c24.399-1.113,31.214,30.478,14.115,40.417
		l13.896,0.003v8.316l-19.17,0.068c8.68,0.856,10.764,23.409,23.578,24.411c4.692-0.369,8.96-3.979,9.786-6.205
		c0.688-1.814,0.654-2.954,0.433-3.639c-3.239,2.062-5.983-3.451-2.267-4.722C139.18,70.516,141.984,96.48,119.691,95.542z"/>
	<path fill="#FFFFFF" d="M49.13,82.78c-5.863,5.808-13.492,9.242-21.32,9.13C12.232,91.685,0.849,78.071,0.849,61.322
		c0-16.675,11.572-32.926,27.985-35.272c7.607-1.094,14.764,1.16,20.298,5.746V20.902H10.932v-6.267h62.409
		c-2.873,1.565-5.41,3.705-7.415,6.267h-5.669V92.96c0.076,3.581,1.495,10.237,6.18,10.237c0.354,0,0.659-0.046,0.917-0.146
		c-0.008-0.082-0.011-0.16-0.011-0.244c0-1.453,1.18-2.633,2.635-2.633c1.694,0,2.793,1.555,2.793,3.133
		c0,3.096-3.88,4.069-6.334,3.896c-6.657-0.274-7.766-10.849-17.307-14.284V82.78z M49.13,42.656
		c-4.875-5.942-11.986-8.756-19.125-6.938c-10.46,2.666-15.247,10.243-15.957,21.999c-0.727,12.023,2.718,23.036,14.382,25.852
		c7.635,1.845,15.615-4.021,20.701-10.658L49.13,42.656z"/>
	<path fill="#FFFFFF" d="M118.151,14.635h14.821c-2.842,1.505-5.295,3.69-7.187,6.267h-8.608c-2.002-2.718-4.65-4.871-7.768-6.267
		H118.151z"/>
	<g opacity="0.45">
		<path fill="#FFFFFF" d="M6.889,142.108L5.52,127.666H5.45c-0.071,0.938-0.291,2.283-0.653,4.039l-2.19,10.403H0.003l3.676-17.398
			h3.842l1.296,13.676h0.071l7.21-13.676h4.094l-3.629,17.398h-2.7l2.167-10.376c0.308-1.478,0.649-2.832,1.022-4.07h-0.073
			l-7.651,14.446H6.889L6.889,142.108z"/>
		<path fill="#FFFFFF" d="M24.843,142.348c-1.118,0-2.003-0.406-2.653-1.208c-0.648-0.803-0.973-1.938-0.973-3.396
			c0-1.597,0.273-3.101,0.826-4.494c0.552-1.393,1.311-2.5,2.278-3.311c0.968-0.813,2.031-1.223,3.187-1.223
			c0.771,0,1.432,0.18,1.987,0.542c0.556,0.36,0.988,0.884,1.297,1.58h0.12l0.739-1.884h2.142l-2.808,13.16h-2.167l0.25-2.094
			h-0.072C27.745,141.57,26.358,142.348,24.843,142.348L24.843,142.348z M25.867,140.085c0.649,0,1.288-0.303,1.914-0.924
			c0.627-0.612,1.144-1.437,1.548-2.469c0.405-1.031,0.607-2.158,0.607-3.379c0-0.695-0.185-1.263-0.56-1.684
			c-0.371-0.422-0.861-0.639-1.462-0.639c-0.676,0-1.309,0.307-1.906,0.922c-0.595,0.609-1.07,1.438-1.427,2.488
			c-0.357,1.057-0.536,2.143-0.536,3.266c0,0.81,0.162,1.414,0.482,1.812C24.851,139.883,25.297,140.085,25.867,140.085z"/>
		<path fill="#FFFFFF" d="M44.762,128.949h3.236l-5.748,5.774l3.462,7.386h-3.118l-2.485-5.603l-1.617,1.141l-0.917,4.462h-2.808
			l3.927-18.515h2.796c-1.071,4.976-1.704,7.867-1.899,8.679c-0.194,0.811-0.43,1.713-0.709,2.699h0.049L44.762,128.949
			L44.762,128.949z"/>
		<path fill="#FFFFFF" d="M50.435,142.108H47.63l2.805-13.161h2.799L50.435,142.108z M50.996,125.711
			c0-0.538,0.154-0.974,0.464-1.312c0.309-0.33,0.743-0.498,1.309-0.498c0.419,0,0.76,0.105,1.022,0.314
			c0.264,0.211,0.393,0.534,0.393,0.96c0,0.56-0.16,1.005-0.475,1.331c-0.319,0.324-0.735,0.482-1.25,0.482
			c-0.422,0-0.771-0.099-1.048-0.307C51.134,126.478,50.996,126.154,50.996,125.711z"/>
		<path fill="#FFFFFF" d="M62.121,142.108l1.69-7.991c0.144-0.717,0.215-1.235,0.215-1.562c0-1.038-0.514-1.558-1.537-1.558
			c-0.57,0-1.133,0.227-1.688,0.682c-0.555,0.452-1.055,1.1-1.499,1.955c-0.443,0.852-0.776,1.818-0.999,2.895l-1.167,5.582H54.33
			l2.806-13.156h2.19l-0.249,2.436h0.106c0.658-0.938,1.335-1.619,2.035-2.038c0.698-0.425,1.456-0.637,2.272-0.637
			c1.064,0,1.887,0.3,2.47,0.907c0.582,0.601,0.875,1.453,0.875,2.566c0,0.545-0.094,1.264-0.276,2.153l-1.628,7.769L62.121,142.108
			L62.121,142.108z"/>
		<path fill="#FFFFFF" d="M81.739,128.949l-0.37,1.633l-2.283,0.391c0.221,0.462,0.333,1.002,0.333,1.632
			c0,1.532-0.473,2.747-1.417,3.649c-0.944,0.896-2.208,1.35-3.795,1.35c-0.413,0-0.777-0.033-1.095-0.098
			c-0.88,0.316-1.32,0.732-1.32,1.238c0,0.301,0.126,0.504,0.374,0.615c0.25,0.112,0.613,0.2,1.089,0.262l1.512,0.191
			c1.395,0.172,2.395,0.523,2.998,1.043c0.604,0.518,0.905,1.26,0.905,2.23c0,1.552-0.6,2.754-1.795,3.604
			c-1.2,0.852-2.899,1.27-5.105,1.27c-1.608,0-2.857-0.295-3.742-0.893c-0.885-0.593-1.327-1.408-1.327-2.447
			c0-0.816,0.277-1.521,0.828-2.119c0.55-0.594,1.437-1.096,2.659-1.51c-0.603-0.357-0.904-0.863-0.904-1.512
			c0-0.55,0.183-1.025,0.551-1.423c0.369-0.399,0.951-0.791,1.743-1.161c-1.07-0.643-1.606-1.645-1.606-2.998
			c0-1.556,0.486-2.81,1.458-3.761c0.971-0.952,2.254-1.429,3.848-1.429c0.634,0,1.27,0.078,1.904,0.238h4.557V128.949
			L81.739,128.949z M71.994,141.896c-0.89,0.143-1.57,0.424-2.046,0.842c-0.477,0.424-0.715,0.938-0.715,1.561
			c0,0.517,0.222,0.928,0.661,1.232c0.442,0.301,1.113,0.456,2.018,0.456c1.294,0,2.303-0.213,3.034-0.64
			c0.73-0.43,1.096-1.047,1.096-1.848c0-0.403-0.178-0.721-0.536-0.951c-0.356-0.225-0.983-0.393-1.878-0.488L71.994,141.896z
			 M75.208,130.582c-0.517,0-0.97,0.154-1.357,0.457c-0.388,0.305-0.69,0.723-0.904,1.248c-0.214,0.529-0.321,1.106-0.321,1.733
			c0,0.562,0.141,0.999,0.422,1.302c0.282,0.305,0.683,0.459,1.206,0.459c0.516,0,0.962-0.154,1.339-0.466
			c0.376-0.307,0.669-0.733,0.88-1.271c0.209-0.543,0.314-1.131,0.314-1.774C76.791,131.14,76.262,130.582,75.208,130.582z"/>
		<path fill="#FFFFFF" d="M94.863,142.108l-1.368-14.442h-0.073c-0.07,0.938-0.29,2.283-0.652,4.039l-2.19,10.403h-2.606
			l3.677-17.398h3.843l1.296,13.676h0.07l7.211-13.676h4.092l-3.627,17.398h-2.702L104,131.729c0.311-1.475,0.65-2.829,1.026-4.071
			h-0.075l-7.65,14.45H94.863L94.863,142.108z"/>
		<path fill="#FFFFFF" d="M112.821,142.348c-1.118,0-2.003-0.406-2.653-1.208c-0.652-0.803-0.975-1.938-0.975-3.396
			c0-1.597,0.271-3.101,0.825-4.494c0.55-1.393,1.313-2.5,2.276-3.311c0.972-0.813,2.033-1.223,3.191-1.223
			c0.768,0,1.428,0.18,1.986,0.542c0.556,0.356,0.986,0.884,1.298,1.58h0.114l0.742-1.884h2.137l-2.805,13.16h-2.166l0.252-2.094
			h-0.076C115.723,141.57,114.332,142.348,112.821,142.348L112.821,142.348z M113.844,140.085c0.649,0,1.289-0.303,1.916-0.924
			c0.629-0.612,1.146-1.437,1.547-2.469c0.406-1.031,0.607-2.158,0.607-3.379c0-0.695-0.188-1.263-0.56-1.684
			c-0.374-0.422-0.863-0.639-1.464-0.639c-0.676,0-1.309,0.307-1.905,0.922c-0.595,0.609-1.065,1.438-1.427,2.488
			c-0.355,1.057-0.533,2.143-0.533,3.266c0,0.81,0.161,1.414,0.479,1.812C112.83,139.883,113.275,140.085,113.844,140.085z"/>
		<path fill="#FFFFFF" d="M129.592,128.708c1.416,0,2.48,0.709,3.189,2.117h0.091c0.104-1.157,0.254-2.151,0.44-2.974l0.906-4.261
			h2.771l-3.926,18.515h-2.189l0.227-2.096h-0.082c-0.701,0.842-1.375,1.44-2.021,1.794c-0.654,0.359-1.344,0.539-2.072,0.539
			c-1.135,0-2.026-0.406-2.666-1.208c-0.64-0.804-0.963-1.942-0.963-3.421c0-1.626,0.283-3.145,0.851-4.555
			c0.567-1.416,1.325-2.51,2.28-3.283C127.377,129.098,128.432,128.708,129.592,128.708L129.592,128.708z M127.995,140.082
			c0.651,0,1.296-0.322,1.933-0.971c0.639-0.654,1.148-1.505,1.534-2.55c0.388-1.049,0.579-2.104,0.579-3.178
			c0-0.724-0.173-1.302-0.521-1.741c-0.344-0.436-0.868-0.652-1.576-0.652c-0.676,0-1.305,0.306-1.893,0.92
			c-0.586,0.61-1.059,1.447-1.399,2.51c-0.353,1.063-0.527,2.146-0.527,3.248C126.126,139.281,126.75,140.082,127.995,140.082
			L127.995,140.082z"/>
		<path fill="#FFFFFF" d="M142.531,142.348c-1.565,0-2.783-0.44-3.66-1.323c-0.874-0.877-1.313-2.105-1.313-3.689
			c0-1.568,0.303-3.029,0.92-4.381c0.617-1.354,1.447-2.398,2.5-3.133c1.049-0.744,2.226-1.111,3.526-1.111
			c1.274,0,2.271,0.291,2.981,0.863c0.709,0.578,1.063,1.393,1.063,2.445c0,1.442-0.661,2.57-1.979,3.385
			c-1.322,0.812-3.205,1.225-5.646,1.225h-0.512l-0.028,0.363v0.344c0,0.884,0.229,1.572,0.675,2.07
			c0.449,0.502,1.119,0.752,2.008,0.752c0.569,0,1.138-0.078,1.697-0.227c0.564-0.154,1.231-0.411,2.002-0.773v2.226
			c-0.763,0.35-1.465,0.601-2.099,0.741C144.027,142.275,143.313,142.348,142.531,142.348L142.531,142.348z M144.338,130.855
			c-0.763,0-1.479,0.34-2.146,1.02c-0.672,0.683-1.15,1.586-1.447,2.703h0.347c1.492,0,2.656-0.213,3.496-0.637
			c0.842-0.427,1.263-1.027,1.263-1.803c0-0.404-0.127-0.723-0.381-0.943C145.215,130.965,144.837,130.855,144.338,130.855z"/>
		<path fill="#FFFFFF" d="M165.621,142.108h-9.23l3.676-17.398h9.229l-0.506,2.444h-6.414l-1.006,4.697h5.98l-0.491,2.418h-5.995
			l-1.141,5.423h6.417L165.621,142.108L165.621,142.108z"/>
		<path fill="#FFFFFF" d="M173.11,142.348c-1.114,0-1.999-0.406-2.655-1.208c-0.646-0.803-0.969-1.938-0.969-3.396
			c0-1.597,0.272-3.101,0.821-4.494c0.554-1.393,1.312-2.5,2.28-3.311c0.969-0.813,2.029-1.223,3.188-1.223
			c0.771,0,1.431,0.18,1.983,0.542c0.558,0.36,0.992,0.884,1.303,1.58h0.113l0.744-1.884h2.138l-2.806,13.16h-2.166l0.25-2.094
			h-0.074C176.013,141.57,174.625,142.348,173.11,142.348L173.11,142.348z M174.138,140.085c0.646,0,1.286-0.303,1.911-0.924
			c0.627-0.612,1.141-1.437,1.546-2.469c0.407-1.031,0.61-2.158,0.61-3.379c0-0.695-0.187-1.263-0.559-1.684
			c-0.373-0.422-0.861-0.639-1.464-0.639c-0.675,0-1.308,0.307-1.904,0.922c-0.594,0.609-1.069,1.438-1.428,2.488
			c-0.356,1.057-0.539,2.143-0.539,3.266c0,0.81,0.162,1.414,0.485,1.812C173.117,139.883,173.565,140.085,174.138,140.085z"/>
		<path fill="#FFFFFF" d="M191.78,138.058c0,1.378-0.472,2.43-1.401,3.172c-0.934,0.742-2.234,1.114-3.905,1.114
			c-1.507,0-2.78-0.265-3.831-0.798v-2.416c1.212,0.713,2.453,1.068,3.714,1.068c0.771,0,1.39-0.16,1.87-0.474
			c0.479-0.321,0.716-0.75,0.716-1.302c0-0.405-0.142-0.749-0.412-1.04c-0.278-0.296-0.837-0.681-1.688-1.159
			c-0.992-0.533-1.688-1.074-2.099-1.627c-0.411-0.553-0.616-1.199-0.616-1.956c0-1.228,0.422-2.192,1.271-2.892
			c0.853-0.696,1.995-1.049,3.44-1.049c1.556,0,2.933,0.334,4.115,1.002l-0.902,2.096c-1.114-0.604-2.166-0.903-3.164-0.903
			c-0.58,0-1.053,0.132-1.41,0.392c-0.358,0.263-0.547,0.627-0.547,1.099c0,0.351,0.132,0.676,0.396,0.944
			c0.258,0.283,0.797,0.636,1.605,1.072c0.83,0.473,1.421,0.871,1.775,1.201c0.352,0.332,0.611,0.693,0.795,1.085
			C191.688,137.087,191.78,137.546,191.78,138.058L191.78,138.058z"/>
		<path fill="#FFFFFF" d="M194.641,128.949h2.758l0.75,6.315c0.07,0.493,0.13,1.185,0.188,2.076c0.055,0.896,0.086,1.61,0.086,2.163
			h0.071c0.681-1.709,1.217-2.947,1.604-3.725l3.482-6.824h3.021l-8.182,15.229c-0.716,1.309-1.49,2.266-2.336,2.872
			c-0.839,0.61-1.824,0.911-2.959,0.911c-0.602,0-1.172-0.077-1.699-0.227v-2.236c0.592,0.125,1.09,0.193,1.486,0.193
			c0.583,0,1.115-0.177,1.588-0.52c0.479-0.348,0.971-0.961,1.479-1.848l0.607-1.098L194.641,128.949L194.641,128.949z"/>
	</g>
</g>
<g opacity="0.45">
	<path fill="#FFFFFF" d="M196.751,4.721c0.282,0,0.489-0.058,0.612-0.164c0.126-0.104,0.192-0.28,0.192-0.525
		c0-0.242-0.066-0.412-0.192-0.52c-0.123-0.104-0.33-0.155-0.612-0.155h-0.574v1.364H196.751 M196.177,5.662V7.67h-1.369V2.363
		h2.087c0.701,0,1.211,0.118,1.534,0.355c0.329,0.231,0.49,0.602,0.49,1.111c0,0.351-0.082,0.639-0.253,0.864
		c-0.17,0.22-0.424,0.39-0.768,0.494c0.191,0.046,0.354,0.144,0.505,0.294c0.149,0.148,0.298,0.375,0.447,0.684l0.747,1.504h-1.458
		l-0.646-1.318c-0.13-0.263-0.263-0.447-0.398-0.539c-0.132-0.1-0.312-0.15-0.534-0.15H196.177"/>
	<g id="g20" transform="translate(19,3)">
		<path id="path22" fill="#FFFFFF" d="M178.039,6.253c-2.31,0-4.187-1.874-4.187-4.188c0-2.312,1.877-4.187,4.187-4.187
			c2.313,0,4.189,1.875,4.189,4.187C182.229,4.379,180.352,6.253,178.039,6.253 M178.055-3c-2.768,0-5.015,2.246-5.015,5.016
			c0,2.772,2.247,5.016,5.015,5.016c2.77,0,5.017-2.243,5.017-5.016C183.071-0.754,180.824-3,178.055-3"/>
	</g>
</g>
</svg>
